<?xml version="1.0" encoding="utf-8"?>
<!-- Generator: Adobe Illustrator 23.0.4, SVG Export Plug-In . SVG Version: 6.00 Build 0)  -->
<svg version="1.1" id="Layer_1" xmlns="http://www.w3.org/2000/svg" xmlns:xlink="http://www.w3.org/1999/xlink" x="0px" y="0px"
	 viewBox="0 0 121 147" style="enable-background:new 0 0 121 147;" xml:space="preserve">
<style type="text/css">
	.st0{fill:#FFA502;}
</style>
<path class="st0" d="M4.6,20.2h47.8v28.6C48.7,44,45,39.1,41.4,34.2c-2.2-3-4.5-4.1-8.2-4c-9.4,0.2-18.8,0.1-28.5,0.1L4.6,20.2
	L4.6,20.2z"/>
<path class="st0" d="M106,20.2v9.9H72.1v42.2c-0.4,0.1-0.8,0.2-1.3,0.4c-4.2-5.4-8.4-10.9-12.6-16.3V20.3L106,20.2L106,20.2z"/>
<rect x="4.6" y="3.7" class="st0" width="101.4" height="10.8"/>
<path class="st0" d="M39.2,76.4c4.5,6.1,8.9,12,13.2,17.8v24.7H39.2V76.4z"/>
<path class="st0" d="M70.8,118.9H58.2V102C62.4,107.6,66.5,113.2,70.8,118.9z"/>
</svg>
